<svg width="223" height="42" viewBox="0 0 223 42" fill="none" xmlns="http://www.w3.org/2000/svg">
<path d="M26.82 21.035C29.1667 21.585 30.9817 22.7217 32.265 24.445C33.585 26.1317 34.245 28.0933 34.245 30.33C34.245 33.74 33.1083 36.38 30.835 38.25C28.5983 40.0833 25.3717 41 21.155 41H0.75V2.06H20.605C24.565 2.06 27.6817 2.92167 29.955 4.645C32.2283 6.36833 33.365 8.88 33.365 12.18C33.365 14.4533 32.76 16.3783 31.55 17.955C30.3767 19.495 28.8 20.5217 26.82 21.035ZM12.96 17.24H17.69C18.79 17.24 19.5967 17.02 20.11 16.58C20.66 16.14 20.935 15.4617 20.935 14.545C20.935 13.5917 20.66 12.895 20.11 12.455C19.5967 11.9783 18.79 11.74 17.69 11.74H12.96V17.24ZM18.515 31.21C19.615 31.21 20.4217 31.0083 20.935 30.605C21.485 30.165 21.76 29.4683 21.76 28.515C21.76 26.645 20.6783 25.71 18.515 25.71H12.96V31.21H18.515ZM68.9827 9.98V41H56.7727V36.27C55.8193 37.7367 54.536 38.9283 52.9227 39.845C51.346 40.7617 49.4577 41.22 47.2577 41.22C43.701 41.22 40.9143 40.0283 38.8977 37.645C36.9177 35.2617 35.9277 32.035 35.9277 27.965V9.98H48.0827V26.425C48.0827 27.8917 48.4677 29.065 49.2377 29.945C50.0443 30.7883 51.1077 31.21 52.4277 31.21C53.7843 31.21 54.8477 30.7883 55.6177 29.945C56.3877 29.065 56.7727 27.8917 56.7727 26.425V9.98H68.9827ZM94.0223 9.76C97.5789 9.76 100.347 10.9517 102.327 13.335C104.344 15.7183 105.352 18.945 105.352 23.015V41H93.1973V24.555C93.1973 23.0883 92.7939 21.9333 91.9873 21.09C91.2173 20.21 90.1723 19.77 88.8523 19.77C87.4956 19.77 86.4323 20.21 85.6623 21.09C84.8923 21.9333 84.5073 23.0883 84.5073 24.555V41H72.2973V9.98H84.5073V14.71C85.4606 13.2433 86.7256 12.0517 88.3023 11.135C89.9156 10.2183 91.8223 9.76 94.0223 9.76ZM106.797 25.49C106.797 22.2267 107.347 19.4033 108.447 17.02C109.584 14.6 111.124 12.7667 113.067 11.52C115.01 10.2367 117.192 9.595 119.612 9.595C121.629 9.595 123.352 10.0167 124.782 10.86C126.249 11.6667 127.367 12.785 128.137 14.215V0.299999H140.347V41H128.137V36.765C127.367 38.195 126.249 39.3317 124.782 40.175C123.352 40.9817 121.629 41.385 119.612 41.385C117.192 41.385 115.01 40.7617 113.067 39.515C111.124 38.2317 109.584 36.3983 108.447 34.015C107.347 31.595 106.797 28.7533 106.797 25.49ZM128.192 25.49C128.192 23.84 127.77 22.5567 126.927 21.64C126.084 20.7233 125.002 20.265 123.682 20.265C122.362 20.265 121.28 20.7233 120.437 21.64C119.594 22.5567 119.172 23.84 119.172 25.49C119.172 27.14 119.594 28.4233 120.437 29.34C121.28 30.2567 122.362 30.715 123.682 30.715C125.002 30.715 126.084 30.2567 126.927 29.34C127.77 28.4233 128.192 27.14 128.192 25.49ZM155.84 0.299999V41H143.63V0.299999H155.84ZM189.184 25.215C189.184 26.0583 189.129 26.865 189.019 27.635H169.384C169.568 30.3117 170.686 31.65 172.739 31.65C174.059 31.65 175.013 31.045 175.599 29.835H188.524C188.084 32.035 187.149 34.015 185.719 35.775C184.326 37.4983 182.548 38.8733 180.384 39.9C178.258 40.89 175.911 41.385 173.344 41.385C170.264 41.385 167.514 40.7433 165.094 39.46C162.711 38.1767 160.841 36.3433 159.484 33.96C158.164 31.54 157.504 28.7167 157.504 25.49C157.504 22.2633 158.164 19.4583 159.484 17.075C160.841 14.655 162.711 12.8033 165.094 11.52C167.514 10.2367 170.264 9.595 173.344 9.595C176.424 9.595 179.156 10.2367 181.539 11.52C183.959 12.7667 185.829 14.5633 187.149 16.91C188.506 19.2567 189.184 22.025 189.184 25.215ZM176.809 22.3C176.809 21.2733 176.479 20.5033 175.819 19.99C175.159 19.44 174.334 19.165 173.344 19.165C171.181 19.165 169.916 20.21 169.549 22.3H176.809ZM189.196 25.49C189.196 22.2267 189.746 19.4033 190.846 17.02C191.983 14.6 193.523 12.7667 195.466 11.52C197.409 10.2367 199.591 9.595 202.011 9.595C204.028 9.595 205.751 10.0167 207.181 10.86C208.648 11.6667 209.766 12.785 210.536 14.215V0.299999H222.746V41H210.536V36.765C209.766 38.195 208.648 39.3317 207.181 40.175C205.751 40.9817 204.028 41.385 202.011 41.385C199.591 41.385 197.409 40.7617 195.466 39.515C193.523 38.2317 191.983 36.3983 190.846 34.015C189.746 31.595 189.196 28.7533 189.196 25.49ZM210.591 25.49C210.591 23.84 210.169 22.5567 209.326 21.64C208.483 20.7233 207.401 20.265 206.081 20.265C204.761 20.265 203.679 20.7233 202.836 21.64C201.993 22.5567 201.571 23.84 201.571 25.49C201.571 27.14 201.993 28.4233 202.836 29.34C203.679 30.2567 204.761 30.715 206.081 30.715C207.401 30.715 208.483 30.2567 209.326 29.34C210.169 28.4233 210.591 27.14 210.591 25.49Z" fill="#202020"/>
</svg>
